<?xml version="1.0" encoding="utf-8"?>
<!-- Generator: Adobe Illustrator 25.0.1, SVG Export Plug-In . SVG Version: 6.00 Build 0)  -->
<svg version="1.1" id="Capa_1" xmlns="http://www.w3.org/2000/svg" xmlns:xlink="http://www.w3.org/1999/xlink" x="0px" y="0px"
	 viewBox="0 0 800 800" style="enable-background:new 0 0 800 800;" xml:space="preserve">
<g>
	<path d="M594.91,329.36c0,0,32.35-24.6,7.73-49.2c-24.63-24.6-48.57,7.15-48.57,7.15L306.5,534.92c0,0-57.98,74.83-102.07,29.58
		c-44.03-45.3,29.56-102.1,29.56-102.1L558.6,137.82c0,0,75.75-83.45,146.97-12.29C776.69,196.73,693,272.64,693,272.64
		L328.25,637.39c0,0-116.7,134.82-224.73,26.76s28.11-223.44,28.11-223.44l276.91-276.99c0,0,31.01-25.89,7.78-49.2
		c-23.34-23.28-49.18,7.78-49.18,7.78L49.39,440.05c0,0-119.95,131.55,14,265.47c133.95,134,265.58,14.05,265.58,14.05L765.7,282.79
		c0,0,87.38-96.37-16.8-200.61S548.32,65.34,548.32,65.34l-375.8,375.74c0,0-96.24,78.29-8.91,165.56
		c87.33,87.38,164.19-10.28,164.19-10.28L594.91,329.36z"/>
</g>
</svg>
