<?xml version="1.0" encoding="utf-8"?>
<!-- Generator: Adobe Illustrator 25.0.1, SVG Export Plug-In . SVG Version: 6.00 Build 0)  -->
<svg version="1.1" id="Capa_1" xmlns="http://www.w3.org/2000/svg" xmlns:xlink="http://www.w3.org/1999/xlink" x="0px" y="0px"
	 viewBox="0 0 800 800" style="enable-background:new 0 0 800 800;" xml:space="preserve">
<g>
	<g>
		<path d="M632.07,95.85H507.55C501.34,41.98,455.51,0,400,0c-55.5,0-101.33,41.98-107.54,95.85H167.93
			c-50.39,0-91.39,41.01-91.39,91.4v4.69c0,38.51,23.98,71.47,57.76,84.9V708.6c0,50.4,41,91.4,91.39,91.4h348.63
			c50.39,0,91.39-41.01,91.39-91.4V276.84c33.78-13.43,57.76-46.39,57.76-84.9v-4.69C723.46,136.85,682.47,95.85,632.07,95.85z
			 M400,43.35c31.57,0,57.92,22.63,63.75,52.5H336.26C342.09,65.97,368.44,43.35,400,43.35z M622.36,708.6
			c0,26.5-21.56,48.06-48.05,48.06H225.69c-26.49,0-48.05-21.56-48.05-48.06V283.33h444.72V708.6z M680.12,191.94
			c0,26.5-21.56,48.06-48.05,48.06H167.93c-26.49,0-48.05-21.56-48.05-48.06v-4.69c0-26.5,21.56-48.06,48.05-48.06h464.15
			c26.49,0,48.05,21.56,48.05,48.06L680.12,191.94L680.12,191.94z"/>
		<path d="M283.8,701.22c11.97,0,21.67-9.71,21.67-21.67V435.53c0-11.97-9.7-21.67-21.67-21.67s-21.67,9.71-21.67,21.67v244.02
			C262.13,691.52,271.84,701.22,283.8,701.22z"/>
		<path d="M400,701.22c11.97,0,21.67-9.71,21.67-21.67V435.53c0-11.97-9.71-21.67-21.67-21.67c-11.97,0-21.67,9.71-21.67,21.67
			v244.02C378.33,691.52,388.03,701.22,400,701.22z"/>
		<path d="M516.2,701.22c11.97,0,21.67-9.71,21.67-21.67V435.53c0-11.97-9.7-21.67-21.67-21.67c-11.97,0-21.67,9.71-21.67,21.67
			v244.02C494.52,691.52,504.23,701.22,516.2,701.22z"/>
	</g>
</g>
</svg>
