<?xml version="1.0" encoding="utf-8"?>
<!-- Generator: Adobe Illustrator 25.0.1, SVG Export Plug-In . SVG Version: 6.00 Build 0)  -->
<svg version="1.1" id="Capa_1" xmlns="http://www.w3.org/2000/svg" xmlns:xlink="http://www.w3.org/1999/xlink" x="0px" y="0px"
	 viewBox="0 0 800 800" style="enable-background:new 0 0 800 800;" xml:space="preserve">
<g>
	<g>
		<path d="M228.35,397.65c0,54.39-44.15,98.35-98.67,98.35c-54.5-0.02-98.67-43.98-98.67-98.35c0-54.23,44.19-98.28,98.67-98.28
			C184.19,299.37,228.35,343.41,228.35,397.65z"/>
		<path d="M498.46,397.65c0,54.39-44.15,98.35-98.65,98.35c-54.5,0-98.67-43.96-98.67-98.35c0-54.23,44.19-98.28,98.67-98.28
			C454.33,299.37,498.46,343.41,498.46,397.65z"/>
		<path d="M768.6,397.65c0,54.39-44.15,98.35-98.67,98.35c-54.5,0-98.65-43.96-98.65-98.35c0-54.23,44.19-98.28,98.65-98.28
			C724.45,299.37,768.6,343.41,768.6,397.65z"/>
	</g>
</g>
</svg>
