<?xml version="1.0" encoding="utf-8"?>
<!-- Generator: Adobe Illustrator 25.0.1, SVG Export Plug-In . SVG Version: 6.00 Build 0)  -->
<svg version="1.1" id="Layer_1" xmlns="http://www.w3.org/2000/svg" xmlns:xlink="http://www.w3.org/1999/xlink" x="0px" y="0px"
	 viewBox="0 0 800 800" style="enable-background:new 0 0 800 800;" xml:space="preserve">
<style type="text/css">
	.st0{fill:#044879;}
</style>
<path class="st0" d="M800,145.25C799.92,68.93,742.99,7.08,672.73,7L127.27,7C57.01,7.08,0.08,68.93,0,145.25l0,513.5
	C0.08,735.07,57.01,796.92,127.27,797h236.36l0-477.96L243.89,449.09c-14.56,15.03-37.58,14.39-51.41-1.43
	c-13.33-15.25-13.33-39.17,0-54.41l181.82-197.5c14.2-15.41,37.21-15.41,51.41,0l181.82,197.5c13.83,15.82,13.24,40.82-1.32,55.84
	c-14.04,14.48-36.06,14.48-50.09,0L436.36,319.04l0,477.96l236.36,0c70.26-0.08,127.2-61.93,127.27-138.25"/>
</svg>
