<?xml version="1.0" encoding="utf-8"?>
<!-- Generator: Adobe Illustrator 25.0.1, SVG Export Plug-In . SVG Version: 6.00 Build 0)  -->
<svg version="1.1" id="Layer_1" xmlns="http://www.w3.org/2000/svg" xmlns:xlink="http://www.w3.org/1999/xlink" x="0px" y="0px"
	 viewBox="0 0 800 800" style="enable-background:new 0 0 800 800;" xml:space="preserve">
<style type="text/css">
	.st0{fill:#044779;}
</style>
<path id="XMLID_223_" class="st0" d="M792.59,538.44c0.32-0.39,0.59-0.8,0.89-1.19c0.34-0.46,0.7-0.9,1.01-1.38
	c0.32-0.47,0.59-0.96,0.88-1.44c0.26-0.43,0.53-0.85,0.77-1.3c0.26-0.49,0.49-1,0.72-1.5c0.22-0.46,0.45-0.92,0.65-1.4
	c0.2-0.49,0.36-0.98,0.54-1.48c0.19-0.51,0.38-1.02,0.54-1.54c0.15-0.49,0.26-0.99,0.38-1.49c0.14-0.54,0.29-1.07,0.39-1.62
	c0.11-0.57,0.18-1.14,0.26-1.72c0.07-0.48,0.16-0.96,0.21-1.45c0.1-1.06,0.16-2.12,0.16-3.18c0-0.02,0-0.03,0-0.04
	c0-0.02,0-0.04,0-0.05c0-1.06-0.05-2.12-0.16-3.17c-0.05-0.49-0.14-0.96-0.21-1.45c-0.08-0.57-0.15-1.15-0.26-1.72
	c-0.11-0.55-0.26-1.09-0.4-1.63c-0.12-0.49-0.23-0.99-0.38-1.48c-0.16-0.53-0.36-1.04-0.54-1.55c-0.18-0.49-0.34-0.99-0.54-1.47
	c-0.2-0.48-0.43-0.94-0.65-1.41c-0.24-0.5-0.46-1-0.72-1.49c-0.24-0.45-0.51-0.87-0.77-1.31c-0.29-0.48-0.56-0.97-0.87-1.43
	c-0.32-0.48-0.68-0.92-1.02-1.38c-0.3-0.4-0.57-0.8-0.89-1.19c-0.65-0.8-1.34-1.56-2.07-2.29c-0.03-0.03-0.06-0.07-0.1-0.11
	l-81.74-81.75c-12.77-12.77-33.47-12.77-46.24,0c-12.77,12.77-12.77,33.47,0,46.24l25.93,25.93l-99.81,0V313.67
	c0.01-0.29,0.04-0.57,0.04-0.86c0-7.86-2.81-15.05-7.43-20.69c-0.05-0.06-0.09-0.12-0.14-0.17c-0.6-0.72-1.24-1.42-1.9-2.09
	c-0.09-0.1-0.19-0.19-0.29-0.29c-0.29-0.29-0.56-0.59-0.86-0.87L339.2,49.91c-0.01-0.01-0.02-0.02-0.03-0.03
	c-0.67-0.67-1.37-1.29-2.08-1.89c-0.23-0.19-0.46-0.37-0.69-0.55c-0.52-0.41-1.05-0.82-1.6-1.19c-0.27-0.19-0.55-0.38-0.83-0.56
	c-0.57-0.37-1.16-0.73-1.75-1.06c-0.24-0.14-0.48-0.29-0.73-0.42c-0.79-0.42-1.6-0.81-2.42-1.16c-0.34-0.15-0.68-0.27-1.02-0.41
	c-0.54-0.22-1.09-0.42-1.65-0.6c-0.38-0.13-0.76-0.25-1.15-0.36c-0.63-0.18-1.27-0.34-1.91-0.49c-0.29-0.06-0.56-0.14-0.85-0.2
	c-0.92-0.18-1.84-0.32-2.77-0.42c-0.28-0.03-0.57-0.05-0.86-0.08c-0.77-0.07-1.54-0.1-2.31-0.12c-0.17,0-0.32-0.03-0.49-0.03H32.7
	C14.64,40.33,0,54.97,0,73.02v653.95c0,18.06,14.64,32.7,32.7,32.7h523.16c18.06,0,32.7-14.64,32.7-32.7V550.41l99.81,0
	l-25.92,25.92c-12.77,12.77-12.77,33.47,0,46.24c6.38,6.38,14.75,9.58,23.12,9.58c8.37,0,16.74-3.19,23.12-9.58l81.74-81.74
	c0.02-0.02,0.03-0.03,0.05-0.05C791.21,540.04,791.92,539.26,792.59,538.44z M348.77,151.96l128.15,128.15H348.77V151.96z
	 M523.16,694.28H65.4V105.72h217.98v207.09c0,18.06,14.64,32.7,32.7,32.7h207.09v139.51l-141.69,0c-18.06,0-32.7,14.64-32.7,32.7
	s14.64,32.7,32.7,32.7l141.69,0V694.28z"/>
</svg>
