<?xml version="1.0" encoding="utf-8"?>
<!-- Generator: Adobe Illustrator 25.0.1, SVG Export Plug-In . SVG Version: 6.00 Build 0)  -->
<svg version="1.1" id="Layer_1" xmlns="http://www.w3.org/2000/svg" xmlns:xlink="http://www.w3.org/1999/xlink" x="0px" y="0px"
	 viewBox="0 0 256 256" style="enable-background:new 0 0 256 256;" xml:space="preserve">
<g transform="translate(1.4065934065934016 1.4065934065934016) scale(2.81 2.81)">
	<path d="M45,70.97c-16.01,0-29.04-13.03-29.04-29.04c0-1.71,1.39-3.1,3.1-3.1s3.1,1.39,3.1,3.1c0,12.6,10.25,22.84,22.84,22.84
		c12.6,0,22.84-10.25,22.84-22.84c0-1.71,1.39-3.1,3.1-3.1s3.1,1.39,3.1,3.1C74.04,57.94,61.01,70.97,45,70.97z"/>
	<path d="M45,60.74L45,60.74c-10.28,0-18.7-8.42-18.7-18.7V18.7C26.3,8.41,34.72,0,45,0l0,0c10.28,0,18.7,8.41,18.7,18.7v23.34
		C63.7,52.32,55.28,60.74,45,60.74z"/>
	<path d="M45,89.21c-1.71,0-3.1-1.39-3.1-3.1V68.65c0-1.71,1.39-3.1,3.1-3.1s3.1,1.39,3.1,3.1v17.46
		C48.1,87.83,46.71,89.21,45,89.21z"/>
	<path d="M55.45,90h-20.9c-1.71,0-3.1-1.39-3.1-3.1s1.39-3.1,3.1-3.1h20.9c1.71,0,3.1,1.39,3.1,3.1S57.16,90,55.45,90z"/>
</g>
</svg>
