<?xml version="1.0" encoding="utf-8"?>
<!-- Generator: Adobe Illustrator 25.0.1, SVG Export Plug-In . SVG Version: 6.00 Build 0)  -->
<svg version="1.1" id="Capa_1" xmlns="http://www.w3.org/2000/svg" xmlns:xlink="http://www.w3.org/1999/xlink" x="0px" y="0px"
	 viewBox="0 0 800 800" style="enable-background:new 0 0 800 800;" xml:space="preserve">
<g>
	<path d="M235.66,514.7c0-13.29-9.22-21.21-25.48-21.21c-6.64,0-11.14,0.66-13.49,1.28v42.63c2.79,0.63,6.21,0.84,10.93,0.84
		C224.95,538.23,235.66,529.47,235.66,514.7z"/>
	<path d="M336.35,493.93c-7.28,0-11.99,0.63-14.78,1.28v94.41c2.79,0.65,7.28,0.65,11.35,0.65c29.55,0.21,48.82-16.06,48.82-50.52
		C381.96,509.78,364.39,493.93,336.35,493.93z"/>
	<path d="M523.43,0H202.12c-46.94,0-85.15,38.23-85.15,85.15V400h-8.32c-18.95,0-34.31,15.35-34.31,34.31v208.08
		c0,18.96,15.36,34.31,34.31,34.31h8.32v38.15c0,46.97,38.2,85.15,85.15,85.15h438.42c46.91,0,85.12-38.18,85.12-85.15V201.52
		L523.43,0z M164.36,471.86c10.06-1.7,24.19-2.98,44.1-2.98c20.12,0,34.47,3.84,44.1,11.56c9.21,7.27,15.42,19.27,15.42,33.4
		c0,14.12-4.71,26.13-13.27,34.26c-11.14,10.49-27.62,15.19-46.89,15.19c-4.29,0-8.13-0.21-11.14-0.63v51.6h-32.32L164.36,471.86
		L164.36,471.86z M640.53,747.85H202.12c-18.18,0-32.98-14.8-32.98-33V676.7h408.69c18.95,0,34.31-15.35,34.31-34.31V434.31
		c0-18.96-15.36-34.31-34.31-34.31H169.14V85.15c0-18.15,14.8-32.95,32.98-32.95l301.8-0.32v111.56c0,32.58,26.44,59.05,59.05,59.05
		l109.28-0.31l1.23,492.68C673.48,733.05,658.71,747.85,640.53,747.85z M288.82,613.6V471.86c11.99-1.91,27.61-2.98,44.1-2.98
		c27.4,0,45.18,4.92,59.1,15.4c14.98,11.14,24.4,28.9,24.4,54.39c0,27.62-10.06,46.68-23.98,58.45
		c-15.19,12.63-38.32,18.62-66.58,18.62C308.94,615.74,296.95,614.67,288.82,613.6z M522.49,529.68v26.54h-51.82v58.03h-32.75
		v-144.3h88.21v26.75h-55.45v32.98H522.49z"/>
</g>
</svg>
