<?xml version="1.0" encoding="utf-8"?>
<!-- Generator: Adobe Illustrator 25.0.1, SVG Export Plug-In . SVG Version: 6.00 Build 0)  -->
<svg version="1.1" id="Layer_1" xmlns="http://www.w3.org/2000/svg" xmlns:xlink="http://www.w3.org/1999/xlink" x="0px" y="0px"
	 viewBox="0 0 800 800" style="enable-background:new 0 0 800 800;" xml:space="preserve">
<style type="text/css">
	.st0{fill:none;stroke:#000000;stroke-width:63.6667;stroke-miterlimit:333.3333;}
</style>
<path class="st0" d="M400,400L400,400c-0.17-61,23.79-119.6,66.67-163L622,81.67c25.65-26.42,67.85-27.04,94.27-1.4
	c0.47,0.46,0.94,0.92,1.4,1.4l0,0c26.42,25.65,27.04,67.85,1.4,94.27c-0.46,0.47-0.92,0.94-1.4,1.4L563,333.33
	C519.62,376.24,461.01,400.21,400,400z"/>
<path class="st0" d="M495.33,49.33h-318C107.01,49.33,50,106.34,50,176.67l0,0v318C50,564.99,107.01,622,177.33,622h127.33
	L400,717.33L495.33,622h127.33C692.99,622,750,564.99,750,494.67v-191"/>
</svg>
