<?xml version="1.0" encoding="utf-8"?>
<!-- Generator: Adobe Illustrator 25.0.1, SVG Export Plug-In . SVG Version: 6.00 Build 0)  -->
<svg version="1.1" id="Layer_1" xmlns="http://www.w3.org/2000/svg" xmlns:xlink="http://www.w3.org/1999/xlink" x="0px" y="0px"
	 viewBox="0 0 800 800" style="enable-background:new 0 0 800 800;" xml:space="preserve">
<g id="XMLID_17_">
	<path id="XMLID_18_" d="M303.04,400.02c-53.47,0-96.98-43.5-96.98-96.97c0-20.08-16.28-36.36-36.36-36.36s-36.36,16.28-36.36,36.36
		c0,93.58,76.13,169.7,169.7,169.7c20.08,0,36.36-16.28,36.36-36.36C339.41,416.3,323.12,400.02,303.04,400.02z"/>
	<path id="XMLID_19_" d="M789.35,737.92L541.4,489.98c40.5-51.53,64.68-116.46,64.68-186.94C606.09,135.94,470.14,0,303.04,0
		S0,135.94,0,303.04s135.94,303.04,303.04,303.04c70.47,0,135.41-24.18,186.94-64.68l247.95,247.94c7.1,7.1,16.4,10.65,25.71,10.65
		s18.61-3.55,25.71-10.65C803.55,775.15,803.55,752.12,789.35,737.92z M72.73,303.04c0-127,103.32-230.32,230.32-230.32
		s230.32,103.32,230.32,230.32S430.04,533.36,303.04,533.36S72.73,430.04,72.73,303.04z"/>
</g>
</svg>
