<?xml version="1.0" encoding="utf-8"?>
<!-- Generator: Adobe Illustrator 25.0.1, SVG Export Plug-In . SVG Version: 6.00 Build 0)  -->
<svg version="1.1" id="Layer_1" xmlns="http://www.w3.org/2000/svg" xmlns:xlink="http://www.w3.org/1999/xlink" x="0px" y="0px"
	 viewBox="0 0 800 800" style="enable-background:new 0 0 800 800;" xml:space="preserve">
<style type="text/css">
	.st0{fill:#044879;}
</style>
<path class="st0" d="M656.5,800.2c76.3,0,138.2-56.9,138.3-127.2l0.3-545.5C795.1,57.2,733.3,0.3,657,0.2L143.5-0.2
	C67.2-0.1,5.3,56.8,5.2,127L5,363.4l478,0.3L353,243.9c-15-14.6-14.4-37.6,1.5-51.4c15.3-13.3,39.2-13.3,54.4,0l197.4,181.9
	c15.4,14.2,15.4,37.2,0,51.4L408.6,607.5c-15.8,13.8-40.8,13.2-55.8-1.4c-14.5-14-14.5-36.1,0-50.1l130.1-119.7L5,436.1L4.8,672.5
	c0,70.3,61.9,127.2,138.2,127.4"/>
</svg>
