<?xml version="1.0" encoding="utf-8"?>
<!-- Generator: Adobe Illustrator 25.0.1, SVG Export Plug-In . SVG Version: 6.00 Build 0)  -->
<svg version="1.1" id="Layer_1" xmlns="http://www.w3.org/2000/svg" xmlns:xlink="http://www.w3.org/1999/xlink" x="0px" y="0px"
	 viewBox="0 0 800 800" style="enable-background:new 0 0 800 800;" xml:space="preserve">
<g>
	<path d="M786.1,535.6L625.2,421c-3.4-2.4-7.7-2.7-11.4-0.8c-3.7,1.9-6,6-6,10.2l0.1,54.2H463.1c-6.1,0-12.1,4.3-12.1,10.5v99.7
		c0,6.2,6,10.4,12.1,10.4h146.2V660c0,4.2,1.6,8,5.3,9.9s7.4,1.6,10.8-0.8l160.7-115.3c2.9-2.1,4.2-5.5,4.2-9c0,0,0,0,0,0
		C790.3,541,789,537.7,786.1,535.6z"/>
	<path d="M522.6,648.9h-56.6l0,0c-8.3,0-15.1,6.8-15.1,15.1h-0.1v26.2H96.7V279.4h154.5c8.3,0,15.1-6.8,15.1-15.1V109.8h184.7v316.9
		h0.1c0.2,8.2,6.8,14.7,15,14.7h56.6c8.2,0,14.9-6.6,15-14.7h0v-0.3v0c0,0,0,0,0,0V73.1h0v-35c0-8.3-6.8-15.1-15.1-15.1h-21.4l0,0
		H251.1l0,0h-15.1L9.9,249.2v21.3v8.8v461.2v21.3c0,8.3,6.8,15.1,15.1,15.1h13.8h470h13.8c8.3,0,15.1-6.8,15.1-15.1v-21.3h0V664v0
		C537.7,655.7,531,648.9,522.6,648.9z"/>
	<path d="M141.8,503.4v80.5h36.1c25.2,0,44-14.6,44-40.3s-18.8-40.2-44.1-40.2L141.8,503.4L141.8,503.4z M197.1,543.6
		c0,10.1-7.2,19.1-19.4,19.1h-11.6v-38h11.7C190.9,524.6,197.1,532.7,197.1,543.6z"/>
	<path d="M232.1,543.7c0,24.7,19.2,41.6,44,41.6s44-16.9,44-41.6c0-24.7-19.2-41.6-44-41.6C251.3,502.1,232.1,519,232.1,543.7z
		 M295.5,543.7c0,11.2-7.6,20.1-19.3,20.1c-11.7,0-19.3-8.9-19.3-20.1s7.6-20.2,19.3-20.2C287.9,523.5,295.5,532.5,295.5,543.7z"/>
	<path d="M374.8,523.5c7.2,0,13.5,5.4,15.6,11.7l21-9.8c-4.8-11.1-15.4-23.4-36.6-23.4c-25.2,0-44.3,16.8-44.3,41.6
		c0,24.7,19.1,41.6,44.3,41.6c21.1,0,31.9-12.8,36.6-23.5l-21-9.7c-2,6.3-8.3,11.7-15.6,11.7c-11.7,0-19.5-8.9-19.5-20.1
		S363,523.5,374.8,523.5z"/>
</g>
</svg>
