<?xml version="1.0" encoding="utf-8"?>
<!-- Generator: Adobe Illustrator 25.0.1, SVG Export Plug-In . SVG Version: 6.00 Build 0)  -->
<svg version="1.1" id="Layer_1" xmlns="http://www.w3.org/2000/svg" xmlns:xlink="http://www.w3.org/1999/xlink" x="0px" y="0px"
	 viewBox="0 0 800 800" style="enable-background:new 0 0 800 800;" xml:space="preserve">
<style type="text/css">
	.st0{fill-rule:evenodd;clip-rule:evenodd;fill:#4E4F4F;}
</style>
<path class="st0" d="M400,752.94C205.36,752.94,47.06,594.64,47.06,400S205.36,47.06,400,47.06S752.94,205.36,752.94,400
	S594.64,752.94,400,752.94 M400,0C179.44,0,0,179.44,0,400s179.44,400,400,400s400-179.44,400-400S620.56,0,400,0 M423.53,531.44
	v-343.2h-47.06v343.2L251.95,406.92l-33.32,33.27L400,621.51l181.36-181.32l-33.32-33.27L423.53,531.44L423.53,531.44z"/>
</svg>
