<?xml version="1.0" encoding="utf-8"?>
<!-- Generator: Adobe Illustrator 25.0.1, SVG Export Plug-In . SVG Version: 6.00 Build 0)  -->
<svg version="1.1" id="Layer_1" xmlns="http://www.w3.org/2000/svg" xmlns:xlink="http://www.w3.org/1999/xlink" x="0px" y="0px"
	 viewBox="0 0 800 800" style="enable-background:new 0 0 800 800;" xml:space="preserve">
<style type="text/css">
	.st0{fill:#044779;}
</style>
<path class="st0" d="M400,0C179.44,0,0,179.44,0,400c0,220.56,179.44,400,400,400c220.56,0,400-179.44,400-400
	C800,179.44,620.56,0,400,0z M402.56,125.7c82.15,0,148.76,78.64,148.76,175.68c0,97.03-66.6,175.7-148.76,175.7
	s-148.75-78.67-148.75-175.7C253.81,204.34,320.4,125.7,402.56,125.7z M400,751.44c-98.77,0-188.15-40.96-252.06-106.78
	c-9.06-9.34-11.94-23.1-7.36-35.28c21.88-58.22,62.87-107.05,115.27-139.04c11.31-6.91,25.8-5.57,35.64,3.31
	c30.82,27.83,69.26,44.46,111.07,44.46c41,0,78.76-16,109.27-42.88c9.95-8.76,24.51-9.92,35.73-2.84
	c50.79,32.02,90.47,80.02,111.87,137.01c4.58,12.19,1.7,25.93-7.37,35.27C588.15,710.48,498.76,751.44,400,751.44z"/>
</svg>
